<svg id="b147301b-ab56-4f06-9682-0b461669540b" data-name="Layer 1" xmlns="http://www.w3.org/2000/svg" viewBox="0 0 478.37 417.18"><title>VMW_design_wText</title><polygon points="217.12 320 133.09 275.4 133.09 46.6 217.12 2 217.12 320" fill="#9b56bb"/><polygon points="217.12 2 217.12 112.35 278.81 160.74 349.15 105.56 217.12 2" fill="#8939ad"/><polygon points="217.12 209.13 217.12 319.48 349.15 215.92 278.81 160.74 217.12 209.13" fill="#5b0a87"/><polygon points="278.81 160.74 349.15 215.92 349.15 105.56 278.81 160.74" fill="#781da0"/><path d="M278.39,366.29h13.1c11.86,0,20.05,8.14,20.05,18.76v.11c0,10.62-8.19,18.86-20.05,18.86h-13.1Zm4.26,3.93v29.87h8.84c9.54,0,15.63-6.47,15.63-14.83v-.1c0-8.36-6.09-14.94-15.63-14.94Z"/><path d="M319.07,366.29h27.28v3.88h-23v12.88h20.59v3.88H323.33v13.21h23.29V404H319.07Z"/><path d="M351.26,398.52l2.64-3.12c3.93,3.56,7.71,5.34,12.93,5.34s8.42-2.7,8.42-6.42v-.11c0-3.5-1.89-5.5-9.82-7.17-8.68-1.88-12.67-4.69-12.67-10.89V376c0-5.93,5.23-10.29,12.4-10.29a19.72,19.72,0,0,1,13.27,4.63L376,373.67a16.62,16.62,0,0,0-10.89-4.09c-4.91,0-8,2.69-8,6.09v.11c0,3.55,1.94,5.55,10.25,7.33s12.29,4.9,12.29,10.67v.11c0,6.47-5.39,10.67-12.89,10.67A22,22,0,0,1,351.26,398.52Z"/><path d="M387.05,366.29h4.26V404h-4.26Z"/><path d="M399.09,385.26v-.1c0-10.36,7.6-19.52,18.92-19.52,6.36,0,10.3,1.83,14.07,5l-2.75,3.24a16,16,0,0,0-11.48-4.31c-8.36,0-14.34,7.06-14.34,15.47v.11c0,9,5.77,15.68,14.93,15.68a17.75,17.75,0,0,0,10.89-3.77v-9.38H417.85v-3.83h15.58v15a22.85,22.85,0,0,1-15.15,5.77C406.42,404.67,399.09,396,399.09,385.26Z"/><path d="M442,366.29h4l23.77,30.24V366.29h4.15V404H470.5l-24.37-30.94V404H442Z"/><path d="M113,401.72l-11.12-31a5.15,5.15,0,0,1-.35-1.49,2.69,2.69,0,0,1,2.76-2.61,2.85,2.85,0,0,1,2.76,2.26l9.21,26.67,9.28-26.75a2.78,2.78,0,0,1,2.69-2.18h.28a2.89,2.89,0,0,1,2.84,2.18l9.2,26.75,9.36-26.81a2.67,2.67,0,0,1,2.62-2.12,2.6,2.6,0,0,1,2.69,2.54,5.15,5.15,0,0,1-.35,1.49l-11.19,31a3.24,3.24,0,0,1-3,2.47h-.21a3.05,3.05,0,0,1-3-2.47l-9.13-26.31-9.22,26.31a3,3,0,0,1-3,2.47H116a3.25,3.25,0,0,1-3-2.47"/><path d="M194,369.36a2.73,2.73,0,1,1,5.46,0v6.28c2.69-6.11,8.67-9,12.63-9a2.62,2.62,0,0,1,2.7,2.76,2.72,2.72,0,0,1-2.42,2.77c-7.1.85-12.91,6.17-12.91,16.75v12.44a2.73,2.73,0,1,1-5.46,0v-32"/><path d="M232.32,404.49c-9.88,0-17.94-7.66-17.94-18.9v-.14c0-10.46,7.3-18.89,17.24-18.89,10.63,0,16.69,8.77,16.69,18.4a2.51,2.51,0,0,1-2.51,2.53h-26c.76,7.86,6.25,12.29,12.65,12.29a14.59,14.59,0,0,0,10.35-4.22,2.41,2.41,0,0,1,1.54-.63,2.35,2.35,0,0,1,2.36,2.33,2.3,2.3,0,0,1-.84,1.74,18.18,18.18,0,0,1-13.55,5.49m10.63-21c-.55-6.61-4.31-12.36-11.47-12.36-6.26,0-11,5.26-11.67,12.36Z"/><path d="M155.27,393.12V393c0-7.71,6.37-11.81,15.63-11.81a38.63,38.63,0,0,1,11.26,1.56v-1.28c0-6.58-4-10-10.9-10a18.55,18.55,0,0,0-8.52,1.66,2.58,2.58,0,0,1-1,.22,2.42,2.42,0,0,1-2.41-2.34,2.26,2.26,0,0,1,1.49-2.27,24.33,24.33,0,0,1,11-2.08c5.16,0,9.13,1.34,11.81,4,2.48,2.48,3.75,6,3.75,10.68v20.19a2.58,2.58,0,0,1-2.62,2.68,2.5,2.5,0,0,1-2.6-2.54v-3.49a16.06,16.06,0,0,1-13.23,6.29c-6.8,0-13.66-3.89-13.66-11.38m26.95-2.83v-3.54a38.1,38.1,0,0,0-10.75-1.56c-6.86,0-10.68,3-10.68,7.57v.14c0,4.6,4.24,7.29,9.19,7.29,6.72,0,12.24-4.11,12.24-9.9"/><path d="M13.85,369a5.14,5.14,0,0,0-6.92-2.58,5,5,0,0,0-2.53,6.92L16,398.52c1.83,4,3.75,6,7.36,6,3.86,0,5.54-2.26,7.37-6,0,0,10.12-22,10.22-22.27a1.46,1.46,0,0,1,1.46-.94,1.61,1.61,0,0,1,1.6,1.63V398.5c0,3.32,1.85,6.05,5.39,6.05s5.46-2.73,5.46-6.05V380.86a5.43,5.43,0,0,1,5.76-5.61,5.28,5.28,0,0,1,5.54,5.61V398.5c0,3.32,1.85,6.05,5.39,6.05S77,401.82,77,398.5V380.86a5.42,5.42,0,0,1,5.76-5.61,5.29,5.29,0,0,1,5.54,5.61V398.5c0,3.32,1.84,6.05,5.39,6.05s5.46-2.73,5.46-6.05V378.42c0-7.38-5.93-12.54-13.07-12.54a16.77,16.77,0,0,0-11.6,4.93c-2.38-3.08-5.65-4.93-11.19-4.93-5.84,0-11,4.93-11,4.93a13.09,13.09,0,0,0-9.76-4.93c-5.18,0-9.3,2.28-11.8,8l-7.42,17.47L13.85,369"/><path d="M248.75,371.14v0a4.55,4.55,0,0,1,4.52-4.55c2.55,0,4.53,1.14,4.53,3.61v0c0,2.48-2,5.47-4.53,5.47a4.5,4.5,0,0,1-4.52-4.52m8.18-.95h0c0-2-1.57-2.78-3.66-2.78a3.67,3.67,0,0,0-3.66,3.71v0a3.64,3.64,0,0,0,3.66,3.69c2.07,0,3.66-2.61,3.66-4.63"/><path d="M251.54,369.32a.48.48,0,0,1,.49-.49h1.51a1.73,1.73,0,0,1,1.28.45,1.39,1.39,0,0,1,.38,1h0a1.35,1.35,0,0,1-.88,1.34l.67.81a.59.59,0,0,1,.16.37.45.45,0,0,1-.46.44.6.6,0,0,1-.48-.24l-.93-1.19h-.77v.95a.49.49,0,0,1-1,0Zm1.94,1.64c.47,0,.73-.24.73-.62h0c0-.41-.27-.63-.74-.63h-1V371Z"/></svg>